<?xml version="1.0" encoding="UTF-8"?>
<svg version="1.1" xmlns="http://www.w3.org/2000/svg" width="300" height="110">
<path d="M0 0 C4.29 0 8.58 0 13 0 C13.66 1.32 14.32 2.64 15 4 C15.5878125 4.8971875 15.5878125 4.8971875 16.1875 5.8125 C17.71000161 9.91154281 16.33951801 13.98144596 15 18 C21.27 18.33 27.54 18.66 34 19 C34 19.33 34 19.66 34 20 C33.3387915 19.99476318 32.67758301 19.98952637 31.99633789 19.98413086 C29.01840149 19.96342344 26.04048018 19.95035988 23.0625 19.9375 C22.02158203 19.92912109 20.98066406 19.92074219 19.90820312 19.91210938 C18.91884766 19.90888672 17.92949219 19.90566406 16.91015625 19.90234375 C15.99371338 19.89710693 15.07727051 19.89187012 14.13305664 19.88647461 C12.01636977 19.76078789 12.01636977 19.76078789 11 21 C12.24873901 20.96072388 12.24873901 20.96072388 13.52270508 20.9206543 C16.6144369 20.83539045 19.7055695 20.77273248 22.7980957 20.7253418 C24.79353555 20.68785626 26.78843052 20.62432465 28.78320312 20.56054688 C30.66362305 20.53637695 30.66362305 20.53637695 32.58203125 20.51171875 C33.73936768 20.48553467 34.8967041 20.45935059 36.08911133 20.43237305 C39 21 39 21 40.7956543 23.38598633 C41.19308838 24.24861084 41.59052246 25.11123535 42 26 C42.556875 26.763125 43.11375 27.52625 43.6875 28.3125 C45.45383297 31.92927703 45.67357698 35.09468664 45 39 C43.90043655 41.81825047 42.52448334 44.39184778 41 47 C40.505 47.99 40.505 47.99 40 49 C33.73476146 50.37473876 27.35458034 50.14455073 20.96875 50.1328125 C19.24392395 50.13424759 19.24392395 50.13424759 17.48425293 50.13571167 C15.06030218 50.13639022 12.63634958 50.13455864 10.21240234 50.13037109 C6.5126536 50.12501831 2.81302624 50.13032716 -0.88671875 50.13671875 C-3.2473961 50.13605791 -5.60807337 50.13477663 -7.96875 50.1328125 C-9.06997192 50.13483673 -10.17119385 50.13686096 -11.30578613 50.13894653 C-16.62349607 50.12279755 -21.78410224 50.10211523 -27 49 C-28.25 47.3125 -28.25 47.3125 -29 45 C-29.53625 44.071875 -30.0725 43.14375 -30.625 42.1875 C-32.49861551 37.84411859 -32.89058335 34.43426115 -31.23828125 29.91796875 C-29.39325542 25.98726154 -27.42604684 22.762941 -24 20 C-20.94080612 18.98026871 -18.87581975 18.88466398 -15.67578125 18.90234375 C-14.64775391 18.90556641 -13.61972656 18.90878906 -12.56054688 18.91210938 C-10.95276367 18.92467773 -10.95276367 18.92467773 -9.3125 18.9375 C-8.22904297 18.94201172 -7.14558594 18.94652344 -6.02929688 18.95117188 C-3.35280915 18.96296257 -0.67643223 18.97941937 2 19 C2.495 17.515 2.495 17.515 3 16 C5.1385485 13.8614515 6.13275314 13.57344937 9 13 C9 11.35 9 9.7 9 8 C6.36 8.33 3.72 8.66 1 9 C-1.125 3.375 -1.125 3.375 0 0 Z M3 5 C3.33 5.66 3.66 6.32 4 7 C5.32 6.34 6.64 5.68 8 5 C6.35 5 4.7 5 3 5 Z M11 7 C11 8.98 11 10.96 11 13 C11.33 13 11.66 13 12 13 C12 11.02 12 9.04 12 7 C11.67 7 11.34 7 11 7 Z M10 13 C11 15 11 15 11 15 Z M-21 20 C-21 20.33 -21 20.66 -21 21 C-13.41 21 -5.82 21 2 21 C2 20.67 2 20.34 2 20 C-5.59 20 -13.18 20 -21 20 Z M-21 26 C-21 26.33 -21 26.66 -21 27 C-2.52 27 15.96 27 35 27 C35 26.67 35 26.34 35 26 C16.52 26 -1.96 26 -21 26 Z M-25.83045959 29.80963135 C-27.55871926 33.04639493 -27.45067881 35.39456955 -27 39 C-24.90018868 41.7695189 -23.71165644 42.86801043 -20.26133728 43.50793457 C-19.21337479 43.51111694 -18.16541229 43.51429932 -17.08569336 43.51757812 C-15.89443344 43.53018677 -14.70317352 43.54279541 -13.47581482 43.55578613 C-12.19344437 43.54768921 -10.91107391 43.53959229 -9.58984375 43.53125 C-8.27085587 43.5350769 -6.95186798 43.53890381 -5.59291077 43.54284668 C-2.8045066 43.54873658 -0.01661586 43.54019489 2.77172852 43.52148438 C6.34548991 43.49867162 9.91805126 43.51183382 13.49176884 43.53577423 C16.90216099 43.55370156 20.31222999 43.54115217 23.72265625 43.53125 C25.64924828 43.54339539 25.64924828 43.54339539 27.61476135 43.55578613 C28.80286911 43.54317749 29.99097687 43.53056885 31.21508789 43.51757812 C32.26225479 43.51439575 33.30942169 43.51121338 34.38832092 43.50793457 C37.12517319 43.23504242 37.12517319 43.23504242 38.83665466 41.09484863 C40.8081397 37.54477403 40.3830765 35.02230325 40 31 C38.7893443 28.94995161 38.7893443 28.94995161 37 28 C36.34 28 35.68 28 35 28 C33.13483862 27.9795936 31.26968722 27.95827272 29.40454102 27.93652344 C23.57418253 27.8722627 17.74384434 27.82613339 11.91323948 27.79275131 C8.38328276 27.77184498 4.85371029 27.74345604 1.32397461 27.69824219 C-2.74108581 27.64650731 -6.80574171 27.62706639 -10.87109375 27.609375 C-12.13988876 27.58872986 -13.40868378 27.56808472 -14.71592712 27.54681396 C-15.89046951 27.54651184 -17.0650119 27.54620972 -18.27514648 27.54589844 C-19.3105809 27.53701599 -20.34601532 27.52813354 -21.41282654 27.51898193 C-24.10987216 27.77006999 -24.10987216 27.77006999 -25.83045959 29.80963135 Z M-19 44 C-19 44.33 -19 44.66 -19 45 C-2.17 45 14.66 45 32 45 C32 44.67 32 44.34 32 44 C15.17 44 -1.66 44 -19 44 Z " fill="#057BC3" transform="translate(174,43)"/>
<path d="M0 0 C0.33 0 0.66 0 1 0 C1 3.96 1 7.92 1 12 C1.33 8.04 1.66 4.08 2 0 C3.65 0 5.3 0 7 0 C7 12.21 7 24.42 7 37 C5.02 37 3.04 37 1 37 C0.01 37.66 -0.98 38.32 -2 39 C-4.99609375 38.828125 -4.99609375 38.828125 -8.4375 38.25 C-9.57058594 38.06953125 -10.70367187 37.8890625 -11.87109375 37.703125 C-14.65062122 37.07851208 -16.66992861 36.61394853 -19 35 C-22.19630377 29.43820065 -22.40097067 24.10422933 -21 18 C-19.32273175 13.84676434 -17.56100642 10.74926286 -14 8 C-10.546875 7.828125 -10.546875 7.828125 -6.75 8.25 C-5.48671875 8.37890625 -4.2234375 8.5078125 -2.921875 8.640625 C-1.47554687 8.81851563 -1.47554687 8.81851563 0 9 C0 6.03 0 3.06 0 0 Z M-9 14 C-5 15 -5 15 -5 15 Z M-15.85546875 17.73046875 C-17.18577028 20.36837043 -17.25405724 21.71889448 -16.875 24.625 C-16.78992188 25.40101562 -16.70484375 26.17703125 -16.6171875 26.9765625 C-16.11804356 29.37920643 -16.11804356 29.37920643 -13 31 C-10.13200652 31.39316434 -10.13200652 31.39316434 -7 31.375 C-5.948125 31.40335938 -4.89625 31.43171875 -3.8125 31.4609375 C-0.91570807 31.26155505 -0.91570807 31.26155505 0.8515625 29.19921875 C2.52377331 25.99699193 2.38729527 23.55020668 2 20 C0.45737187 17.89641619 -0.68108317 17.15945841 -3 16 C-4.80727472 15.82747456 -6.62258683 15.73329462 -8.4375 15.6875 C-9.40558594 15.65011719 -10.37367187 15.61273438 -11.37109375 15.57421875 C-14.09282391 15.7648742 -14.09282391 15.7648742 -15.85546875 17.73046875 Z " fill="#0270BA" transform="translate(116,55)"/>
<path d="M0 0 C1.65 0 3.3 0 5 0 C5 3.96 5 7.92 5 12 C6.28612676 10.94021067 6.28612676 10.94021067 6.09765625 8.49609375 C6.08605469 7.48675781 6.07445312 6.47742187 6.0625 5.4375 C6.05347656 4.42558594 6.04445312 3.41367187 6.03515625 2.37109375 C6.02355469 1.58863281 6.01195312 0.80617187 6 0 C6.33 0 6.66 0 7 0 C7.33 2.64 7.66 5.28 8 8 C8.97582031 8.01417969 9.95164063 8.02835938 10.95703125 8.04296875 C12.86548828 8.11451172 12.86548828 8.11451172 14.8125 8.1875 C16.70935547 8.23970703 16.70935547 8.23970703 18.64453125 8.29296875 C22 9 22 9 23.84375 11.41015625 C24.2253125 12.26480469 24.606875 13.11945313 25 14 C25.556875 14.7425 26.11375 15.485 26.6875 16.25 C28.57004146 20.19437259 28.70583446 23.70427628 28 28 C26.125 31.3125 26.125 31.3125 24 34 C23.71125 34.763125 23.4225 35.52625 23.125 36.3125 C22 38 22 38 19.4375 38.8125 C15.19482887 39.04391843 11.19555896 38.60602518 7 38 C6.505 36.515 6.505 36.515 6 35 C5.67 35.66 5.34 36.32 5 37 C3.35 37 1.7 37 0 37 C0 24.79 0 12.58 0 0 Z M13 13 C12.54625 13.474375 12.0925 13.94875 11.625 14.4375 C10 16 10 16 7.9375 16.375 C5.7699281 16.83958038 5.7699281 16.83958038 4.6875 19.1875 C3.87323602 22.5185799 4.1202895 24.70108562 5 28 C5.66 28.66 6.32 29.32 7 30 C7.66 30 8.32 30 9 30 C9.66 30.33 10.32 30.66 11 31 C12.99954746 31.04254356 15.00041636 31.04080783 17 31 C17.99 31 18.98 31 20 31 C22.12759062 29.44522224 22.91865304 28.20917791 23.875 25.75 C24.05421366 21.80729939 22.95609616 19.39056668 21 16 C18.45224694 15.10613836 18.45224694 15.10613836 16 15 C15.67 14.34 15.34 13.68 15 13 C14.34 13 13.68 13 13 13 Z M11 32 C15 33 15 33 15 33 Z " fill="#0473BF" transform="translate(224,55)"/>
<path d="M0 0 C13.59824102 -0.11839265 13.59824102 -0.11839265 16.81640625 2.44921875 C17.8125 4.25 17.8125 4.25 19 8 C19.4125 8.9075 19.825 9.815 20.25 10.75 C21 13 21 13 21 16 C10.11 16.495 10.11 16.495 -1 17 C5.93 17 12.86 17 20 17 C20 20.26618965 19.3015797 22.03529069 18 25 C17.773125 25.7425 17.54625 26.485 17.3125 27.25 C16 29 16 29 13 29.75 C11.66830185 29.85631204 10.33443387 29.93668744 9 30 C8.14921875 30.07476562 7.2984375 30.14953125 6.421875 30.2265625 C3.85621979 30.3690989 1.53807219 30.40700617 -1 30 C-2.9375 27.8125 -2.9375 27.8125 -4 25 C-4.556875 24.2575 -5.11375 23.515 -5.6875 22.75 C-7.56560905 18.81491438 -7.58584991 15.28842133 -7 11 C-5.6875 8.1875 -5.6875 8.1875 -4 6 C-3.46375 5.278125 -2.9275 4.55625 -2.375 3.8125 C-1.694375 2.9153125 -1.694375 2.9153125 -1 2 C-0.67 1.34 -0.34 0.68 0 0 Z M5 6 C9 7 9 7 9 7 Z M1 10 C4.63 10 8.26 10 12 10 C11.67 9.34 11.34 8.68 11 8 C5.41335154 7.39578469 5.41335154 7.39578469 1 10 Z M13 8 C14 10 14 10 14 10 Z M-1 9 C0 11 0 11 0 11 Z M14 10 C15 12 15 12 15 12 Z M0 11 C0 11.33 0 11.66 0 12 C4.29 12 8.58 12 13 12 C13 11.67 13 11.34 13 11 C8.71 11 4.42 11 0 11 Z M0 18 C-0.33 19.32 -0.66 20.64 -1 22 C2.98892431 23.32964144 6.84018187 23.06602886 11 23 C11.99 23 12.98 23 14 23 C14.33 21.35 14.66 19.7 15 18 C10.05 18 5.1 18 0 18 Z M5 24 C5 24.33 5 24.66 5 25 C6.65 25 8.3 25 10 25 C10 24.67 10 24.34 10 24 C8.35 24 6.7 24 5 24 Z " fill="#0372BE" transform="translate(263,63)"/>
<path d="M0 0 C1.0209375 0.01450195 1.0209375 0.01450195 2.0625 0.02929688 C7.03459821 0.14229911 7.03459821 0.14229911 9.375 1.3125 C11.025 1.3125 12.675 1.3125 14.375 1.3125 C14.375 10.2225 14.375 19.1325 14.375 28.3125 C12.395 28.3125 10.415 28.3125 8.375 28.3125 C7.385 28.6425 6.395 28.9725 5.375 29.3125 C3.40389804 29.63685855 1.42259243 29.90170777 -0.5625 30.125 C-2.12291016 30.32029297 -2.12291016 30.32029297 -3.71484375 30.51953125 C-6.625 30.3125 -6.625 30.3125 -8.859375 28.58984375 C-12.43589374 23.97676759 -15.14480555 19.03543565 -14.5 13.0625 C-12.40376772 4.07864735 -9.81035635 -0.42286019 0 0 Z M-8.46875 9.65625 C-9.86483287 12.8634674 -10.14073567 14.84970333 -9.625 18.3125 C-8.38109295 20.89205419 -8.38109295 20.89205419 -5.625 22.3125 C-2.26416784 22.65353371 1.00866137 22.51481751 4.375 22.3125 C5.365 22.3125 6.355 22.3125 7.375 22.3125 C9.71073034 18.66292135 9.83152447 15.57339509 9.375 11.3125 C7.221241 8.45275824 6.01016266 7.43612226 2.46484375 6.74609375 C0.90443359 6.74802734 0.90443359 6.74802734 -0.6875 6.75 C-2.25177734 6.71712891 -2.25177734 6.71712891 -3.84765625 6.68359375 C-6.81629108 7.0492424 -6.81629108 7.0492424 -8.46875 9.65625 Z M-3.625 23.3125 C-3.625 23.6425 -3.625 23.9725 -3.625 24.3125 C-1.645 24.3125 0.335 24.3125 2.375 24.3125 C2.375 23.9825 2.375 23.6525 2.375 23.3125 C0.395 23.3125 -1.585 23.3125 -3.625 23.3125 Z " fill="#000000" transform="translate(63.625,23.6875)"/>
<path d="M0 0 C4.95 0 9.9 0 15 0 C15.33 0.99 15.66 1.98 16 3 C16.33 2.34 16.66 1.68 17 1 C18.65 1 20.3 1 22 1 C22 9.91 22 18.82 22 28 C20 28 18 28 16 28 C15.01 28.66 14.02 29.32 13 30 C10.30078125 30.1953125 10.30078125 30.1953125 7.3125 30.125 C5.82169922 30.09792969 5.82169922 30.09792969 4.30078125 30.0703125 C3.54152344 30.04710938 2.78226563 30.02390625 2 30 C2 29.34 2 28.68 2 28 C0.47379124 26.49153848 0.47379124 26.49153848 -1.4375 25 C-5.83178365 21.44906372 -5.83178365 21.44906372 -6.2734375 17.64453125 C-6.52647151 10.58877533 -5.64405426 7.32367196 -1 2 C-0.67 1.34 -0.34 0.68 0 0 Z M6 5 C6 5.33 6 5.66 6 6 C7.98 6 9.96 6 12 6 C12 5.67 12 5.34 12 5 C10.02 5 8.04 5 6 5 Z M-1.25 9.0625 C-2.20022145 12.78420066 -1.96197716 15.28951668 -1 19 C0.07971146 20.80473662 0.07971146 20.80473662 2 22 C5.12889174 22.47697449 5.12889174 22.47697449 8.5625 22.375 C10.29693359 22.38660156 10.29693359 22.38660156 12.06640625 22.3984375 C13.03449219 22.26695313 14.00257813 22.13546875 15 22 C17.67089363 17.99365956 17.80639237 14.70687723 17 10 C14.65875926 7.3358295 12.7722606 7.09808273 9.32421875 6.66015625 C3.51330572 6.22725587 3.51330572 6.22725587 -1.25 9.0625 Z M6 23 C10 24 10 24 10 24 Z " fill="#000000" transform="translate(139,24)"/>
<path d="M0 0 C1.82176394 0.23331124 3.64308237 0.4704773 5.46240234 0.72213745 C10.55900471 1.28020658 15.69017862 1.2427196 20.8125 1.31640625 C22.02196289 1.33718735 23.23142578 1.35796844 24.47753906 1.37937927 C28.3183049 1.44445043 32.15913564 1.50356152 36 1.5625 C38.6132878 1.60572561 41.22656918 1.64934116 43.83984375 1.69335938 C50.22649509 1.80008804 56.61321013 1.90193112 63 2 C63.04254356 3.99954746 63.04080783 6.00041636 63 8 C61.34636577 9.65363423 59.40751875 9.12742315 57.13232422 9.12939453 C55.5746785 9.13412277 55.5746785 9.13412277 53.98556519 9.13894653 C52.85337555 9.1369223 51.72118591 9.13489807 50.5546875 9.1328125 C48.81712692 9.13424759 48.81712692 9.13424759 47.04446411 9.13571167 C44.58465521 9.13639403 42.12484453 9.13453591 39.66503906 9.13037109 C35.91206765 9.12505253 32.15921751 9.1302992 28.40625 9.13671875 C26.0182289 9.13605741 23.63020788 9.13477509 21.2421875 9.1328125 C20.12214325 9.13483673 19.002099 9.13686096 17.84811401 9.13894653 C7.12836724 9.10698874 7.12836724 9.10698874 2 8 C0.625 6.125 0.625 6.125 0 4 C-0.33 3.01 -0.66 2.02 -1 1 C-0.67 0.67 -0.34 0.34 0 0 Z M10 3 C10 3.33 10 3.66 10 4 C26.83 4 43.66 4 61 4 C61 3.67 61 3.34 61 3 C44.17 3 27.34 3 10 3 Z " fill="#0270B9" transform="translate(145,84)"/>
<path d="M0 0 C1.65 0 3.3 0 5 0 C5.29132812 0.87140625 5.58265625 1.7428125 5.8828125 2.640625 C8.68526379 10.78359668 11.9810745 18.36380436 16 26 C16.29769287 25.30849854 16.59538574 24.61699707 16.90209961 23.90454102 C18.24477486 20.78946102 19.59108667 17.67596602 20.9375 14.5625 C21.40607422 13.47388672 21.87464844 12.38527344 22.35742188 11.26367188 C23.0293457 9.71196289 23.0293457 9.71196289 23.71484375 8.12890625 C24.33540649 6.69140015 24.33540649 6.69140015 24.96850586 5.22485352 C26 3 26 3 27 2 C28.66617115 1.95936168 30.33388095 1.957279 32 2 C30.62644583 6.30621209 29.01863626 10.42676393 27.21484375 14.5703125 C26.67902006 15.80858665 26.14321327 17.04686812 25.60742188 18.28515625 C24.7700014 20.21213438 23.93155033 22.13865965 23.0925293 24.06494141 C22.27658479 25.94063759 21.46433199 27.81790103 20.65234375 29.6953125 C20.16757568 30.80922363 19.68280762 31.92313477 19.18334961 33.07080078 C18.24284516 35.39887431 17.50972029 37.55081076 17 40 C15.515 39.505 15.515 39.505 14 39 C12.96564741 36.68414862 12.11649129 34.45839406 11.3125 32.0625 C8.77736012 24.85376294 5.81953167 17.93124087 2.5402832 11.02954102 C0.77542784 7.21106706 -0.49328722 4.31201073 0 0 Z " fill="#000000" transform="translate(20,14)"/>
<path d="M0 0 C0.928125 0.20625 1.85625 0.4125 2.8125 0.625 C2.8125 2.935 2.8125 5.245 2.8125 7.625 C3.8025 7.955 4.7925 8.285 5.8125 8.625 C5.8125 10.935 5.8125 13.245 5.8125 15.625 C4.8225 15.625 3.8325 15.625 2.8125 15.625 C2.8125 22.555 2.8125 29.485 2.8125 36.625 C-4.1875 36.625 -4.1875 36.625 -6.1875 35.625 C-6.1875 29.025 -6.1875 22.425 -6.1875 15.625 C-6.8475 15.295 -7.5075 14.965 -8.1875 14.625 C-8.1875 12.315 -8.1875 10.005 -8.1875 7.625 C-7.5275 7.625 -6.8675 7.625 -6.1875 7.625 C-6.249375 6.67625 -6.31125 5.7275 -6.375 4.75 C-6.313125 3.71875 -6.25125 2.6875 -6.1875 1.625 C-3.1875 -0.375 -3.1875 -0.375 0 0 Z " fill="#000000" transform="translate(109.1875,15.375)"/>
<path d="M0 0 C1.375 2.3125 1.375 2.3125 2 5 C1.125 7.3125 1.125 7.3125 0 9 C-2.31 8.34 -4.62 7.68 -7 7 C-6.566875 7.433125 -6.13375 7.86625 -5.6875 8.3125 C-5.130625 8.869375 -4.57375 9.42625 -4 10 C-3.2575 10.680625 -3.2575 10.680625 -2.5 11.375 C0.26661921 14.37217081 1.80622153 16.96651481 2.5625 21 C1.91648509 24.44541288 0.73657187 25.99374222 -2.06640625 28.09765625 C-5.59492184 29.74429686 -9.2021164 29.37978836 -13 29 C-14.125 26.75 -14.125 26.75 -15 24 C-14.34 22.68 -13.68 21.36 -13 20 C-9.7 20.33 -6.4 20.66 -3 21 C-3.33 20.01 -3.66 19.02 -4 18 C-4.9075 18 -5.815 18 -6.75 18 C-10.38013129 16.88303653 -10.74021272 16.4765011 -12.5 13.3125 C-13.83117694 10.21751361 -14.01976439 9.13093908 -13.5 5.6875 C-11.54073014 2.17714151 -9.73921053 0.65220395 -6 -0.75 C-3.58224601 -1.05221925 -2.22332217 -1.03755035 0 0 Z M-9 6 C-8 10 -8 10 -8 10 Z " fill="#000000" transform="translate(96,24)"/>
<path d="M0 0 C4.29 0 8.58 0 13 0 C13.66 1.32 14.32 2.64 15 4 C15.391875 4.598125 15.78375 5.19625 16.1875 5.8125 C17.71000161 9.91154281 16.33951801 13.98144596 15 18 C21.27 18.33 27.54 18.66 34 19 C34 19.33 34 19.66 34 20 C30.41682042 20.08720919 26.83391433 20.14046112 23.25 20.1875 C22.23421875 20.21263672 21.2184375 20.23777344 20.171875 20.26367188 C19.1921875 20.27333984 18.2125 20.28300781 17.203125 20.29296875 C16.30239258 20.3086792 15.40166016 20.32438965 14.47363281 20.34057617 C11.54691237 19.93761772 10.18658651 18.9344597 8 17 C6.68 17.99 5.36 18.98 4 20 C4.33 18.02 4.66 16.04 5 14 C6.32 13.67 7.64 13.34 9 13 C9 11.35 9 9.7 9 8 C6.36 8.33 3.72 8.66 1 9 C-1.125 3.375 -1.125 3.375 0 0 Z M3 5 C3.33 5.66 3.66 6.32 4 7 C5.32 6.34 6.64 5.68 8 5 C6.35 5 4.7 5 3 5 Z M11 7 C11 8.98 11 10.96 11 13 C11.33 13 11.66 13 12 13 C12 11.02 12 9.04 12 7 C11.67 7 11.34 7 11 7 Z M10 13 C11 15 11 15 11 15 Z " fill="#036FBB" transform="translate(174,43)"/>
<path d="M0 0 C-0.33 1.98 -0.66 3.96 -1 6 C-2.98 6 -4.96 6 -7 6 C-8.14654482 8.29308963 -8.19729117 9.79909656 -8.31640625 12.3515625 C-8.35830078 13.20234375 -8.40019531 14.053125 -8.44335938 14.9296875 C-8.48267578 15.81914063 -8.52199219 16.70859375 -8.5625 17.625 C-8.62727539 18.97078125 -8.62727539 18.97078125 -8.69335938 20.34375 C-8.79956861 22.56234283 -8.90161194 24.7810488 -9 27 C-10.65 27 -12.3 27 -14 27 C-14 18.09 -14 9.18 -14 0 C-4 -2 -4 -2 0 0 Z " fill="#000000" transform="translate(132,25)"/>
<path d="M0 0 C2.64 0.66 5.28 1.32 8 2 C7.34 3.98 6.68 5.96 6 8 C4.02 8.33 2.04 8.66 0 9 C-1.10789535 13.05308333 -1.33731267 17.07111374 -1.5625 21.25 C-1.60568359 21.99507812 -1.64886719 22.74015625 -1.69335938 23.5078125 C-1.79896725 25.338349 -1.89994201 27.16915176 -2 29 C-3.32 29 -4.64 29 -6 29 C-6 20.09 -6 11.18 -6 2 C-3.525 2.495 -3.525 2.495 -1 3 C-0.67 2.01 -0.34 1.02 0 0 Z " fill="#086EB4" transform="translate(134,63)"/>
<path d="M0 0 C1.36745599 0.05341625 2.7346589 0.11362896 4.1015625 0.1796875 C5.13023437 0.19515625 5.13023437 0.19515625 6.1796875 0.2109375 C8.1875 0.3125 8.1875 0.3125 11.7265625 1.0546875 C13.765625 3.484375 13.765625 3.484375 14.7265625 6.0546875 C14.3965625 6.7146875 14.0665625 7.3746875 13.7265625 8.0546875 C12.4065625 7.7246875 11.0865625 7.3946875 9.7265625 7.0546875 C10.0565625 8.3746875 10.3865625 9.6946875 10.7265625 11.0546875 C6.1065625 11.0546875 1.4865625 11.0546875 -3.2734375 11.0546875 C-2.9434375 9.0746875 -2.6134375 7.0946875 -2.2734375 5.0546875 C-3.09686282 2.73487804 -3.09686282 2.73487804 -4.2734375 1.0546875 C-3.2734375 0.0546875 -3.2734375 0.0546875 0 0 Z M1.7265625 6.0546875 C5.7265625 7.0546875 5.7265625 7.0546875 5.7265625 7.0546875 Z M-2.2734375 10.0546875 C1.3565625 10.0546875 4.9865625 10.0546875 8.7265625 10.0546875 C8.3965625 9.3946875 8.0665625 8.7346875 7.7265625 8.0546875 C2.13991404 7.45047219 2.13991404 7.45047219 -2.2734375 10.0546875 Z " fill="#046CB5" transform="translate(266.2734375,62.9453125)"/>
<path d="M0 0 C1.82176394 0.23331124 3.64308237 0.4704773 5.46240234 0.72213745 C10.55900471 1.28020658 15.69017862 1.2427196 20.8125 1.31640625 C22.02196289 1.33718735 23.23142578 1.35796844 24.47753906 1.37937927 C28.3183049 1.44445043 32.15913564 1.50356152 36 1.5625 C38.6132878 1.60572561 41.22656918 1.64934116 43.83984375 1.69335938 C50.22649509 1.80008804 56.61321013 1.90193112 63 2 C61 4 61 4 58.82333374 4.20254517 C57.92176544 4.18033905 57.02019714 4.15813293 56.09130859 4.13525391 C55.07040131 4.11508209 54.04949402 4.09491028 52.99765015 4.0741272 C51.33978989 4.02583267 51.33978989 4.02583267 49.6484375 3.9765625 C48.5192691 3.95153656 47.39010071 3.92651062 46.22671509 3.90072632 C42.60917922 3.81835115 38.99217511 3.7218287 35.375 3.625 C32.92710527 3.5667784 30.47918853 3.50947476 28.03125 3.453125 C22.02053701 3.31274631 16.01020102 3.16074137 10 3 C9.67 3.99 9.34 4.98 9 6 C8.34 6 7.68 6 7 6 C6.67 6.66 6.34 7.32 6 8 C4.35 7.67 2.7 7.34 1 7 C0.34 5.02 -0.32 3.04 -1 1 C-0.67 0.67 -0.34 0.34 0 0 Z " fill="#0B64A3" transform="translate(145,84)"/>
<path d="M0 0 C0.33 0 0.66 0 1 0 C1.08119503 2.24940295 1.13927819 4.49964871 1.1875 6.75 C1.23970703 8.62945312 1.23970703 8.62945312 1.29296875 10.546875 C0.98802939 14.14109357 0.45605371 15.44725126 -2 18 C-2.33 17.67 -2.66 17.34 -3 17 C-5.32817964 16.63239269 -7.6618385 16.29758419 -10 16 C-10 15.34 -10 14.68 -10 14 C-10.66 14 -11.32 14 -12 14 C-12 13.01 -12 12.02 -12 11 C-12.99 10.67 -13.98 10.34 -15 10 C-14.67 9.34 -14.34 8.68 -14 8 C-7.07 8.495 -7.07 8.495 0 9 C0 6.03 0 3.06 0 0 Z M-9 14 C-5 15 -5 15 -5 15 Z " fill="#046CB3" transform="translate(116,55)"/>
<path d="M0 0 C6.93 0 13.86 0 21 0 C21 4.51319676 19.04963407 8.0471343 17 12 C16.34 12 15.68 12 15 12 C15 11.01 15 10.02 15 9 C13.56249809 7.31201173 13.56249809 7.31201173 12 6 C12.66 5.34 13.32 4.68 14 4 C14.33 3.34 14.66 2.68 15 2 C8.07 1.505 8.07 1.505 1 1 C0.67 1.66 0.34 2.32 0 3 C0 2.01 0 1.02 0 0 Z " fill="#056AB1" transform="translate(262,80)"/>
<path d="M0 0 C0.33 0.66 0.66 1.32 1 2 C1.66 2 2.32 2 3 2 C3 2.99 3 3.98 3 5 C9.27 5.33 15.54 5.66 22 6 C22 6.33 22 6.66 22 7 C18.41682042 7.08720919 14.83391433 7.14046112 11.25 7.1875 C10.23421875 7.21263672 9.2184375 7.23777344 8.171875 7.26367188 C7.1921875 7.27333984 6.2125 7.28300781 5.203125 7.29296875 C4.30239258 7.3086792 3.40166016 7.32438965 2.47363281 7.34057617 C-0.45308763 6.93761772 -1.81341349 5.9344597 -4 4 C-5.32 4.99 -6.64 5.98 -8 7 C-7.67 5.02 -7.34 3.04 -7 1 C-4.50935112 0.31292445 -2.62113708 0 0 0 Z " fill="#0768AB" transform="translate(186,56)"/>
<path d="M0 0 C3.16115776 1.36983503 3.9927092 1.9890638 6 5 C6 6.32 6 7.64 6 9 C5.34 9 4.68 9 4 9 C4 10.32 4 11.64 4 13 C3.34 13 2.68 13 2 13 C1.731875 11.865625 1.46375 10.73125 1.1875 9.5625 C0.795625 8.386875 0.40375 7.21125 0 6 C-0.99 5.67 -1.98 5.34 -3 5 C-2.01 3.35 -1.02 1.7 0 0 Z " fill="#0174B8" transform="translate(212,67)"/>
<path d="M0 0 C17.16 0 34.32 0 52 0 C52 0.33 52 0.66 52 1 C34.84 1 17.68 1 0 1 C0 0.67 0 0.34 0 0 Z " fill="#19EFFD" transform="translate(155,94)"/>
<path d="M0 0 C3.40100748 4.53467664 3.33913116 5.7912782 3.1875 11.25 C3.16042969 12.51328125 3.13335937 13.7765625 3.10546875 15.078125 C3.07066406 16.04234375 3.03585938 17.0065625 3 18 C2.01 18 1.02 18 0 18 C0 12.06 0 6.12 0 0 Z " fill="#0076BF" transform="translate(129,74)"/>
<path d="M0 0 C0.33 0.66 0.66 1.32 1 2 C1.66 2 2.32 2 3 2 C2 5 2 5 0 6 C0.99 6.99 1.98 7.98 3 9 C0.125 9.625 0.125 9.625 -3 10 C-3.66 9.34 -4.32 8.68 -5 8 C-4.75 5.4375 -4.75 5.4375 -4 3 C-3.34 2.67 -2.68 2.34 -2 2 C-1.34 1.34 -0.68 0.68 0 0 Z " fill="#0661AB" transform="translate(243,84)"/>
<path d="M0 0 C0.33 0 0.66 0 1 0 C1 12.21 1 24.42 1 37 C0.67 37 0.34 37 0 37 C0 24.79 0 12.58 0 0 Z " fill="#1577A9" transform="translate(222,55)"/>
<path d="M0 0 C0.33 0 0.66 0 1 0 C1 11.55 1 23.1 1 35 C0.67 35 0.34 35 0 35 C0 23.45 0 11.9 0 0 Z " fill="#000425" transform="translate(124,56)"/>
<path d="M0 0 C2.64 0.66 5.28 1.32 8 2 C7.67 2.99 7.34 3.98 7 5 C4.36 5 1.72 5 -1 5 C-0.67 3.35 -0.34 1.7 0 0 Z " fill="#0977C1" transform="translate(134,63)"/>
<path d="M0 0 C0.66 0 1.32 0 2 0 C3.125 6.75 3.125 6.75 2 9 C1.01 9 0.02 9 -1 9 C-1.09765625 2.84765625 -1.09765625 2.84765625 -1 1 C-0.67 0.67 -0.34 0.34 0 0 Z " fill="#0272C4" transform="translate(188,49)"/>
<path d="M0 0 C0.33 0 0.66 0 1 0 C1.90483637 5.36489595 2.12303662 10.50317457 2.0625 15.9375 C2.05798828 16.71673828 2.05347656 17.49597656 2.04882812 18.29882812 C2.03716908 20.19925268 2.01923877 22.09963706 2 24 C1.34 24.33 0.68 24.66 0 25 C0 16.75 0 8.5 0 0 Z " fill="#000000" transform="translate(79,26)"/>
<path d="M0 0 C1.32 0.33 2.64 0.66 4 1 C3.67 3.31 3.34 5.62 3 8 C1.68 7.34 0.36 6.68 -1 6 C-1 3 -1 3 0 0 Z " fill="#0663AA" transform="translate(98,84)"/>
<path d="M0 0 C0.99 0 1.98 0 3 0 C2.979375 0.804375 2.95875 1.60875 2.9375 2.4375 C2.70366379 4.93354885 2.70366379 4.93354885 4 6 C4.04080783 7.99958364 4.04254356 10.00045254 4 12 C3.67 12 3.34 12 3 12 C2.67 10.35 2.34 8.7 2 7 C0.35 6.67 -1.3 6.34 -3 6 C-1.68 5.67 -0.36 5.34 1 5 C1 4.34 1 3.68 1 3 C0.01 2.67 -0.98 2.34 -2 2 C-1.34 1.34 -0.68 0.68 0 0 Z " fill="#117CB3" transform="translate(181,44)"/>
<path d="M0 0 C0.33 0 0.66 0 1 0 C1 8.91 1 17.82 1 27 C0.67 27 0.34 27 0 27 C0 18.09 0 9.18 0 0 Z " fill="#000000" transform="translate(162,25)"/>
<path d="M0 0 C0.33 0 0.66 0 1 0 C1 8.91 1 17.82 1 27 C0.67 27 0.34 27 0 27 C0 18.09 0 9.18 0 0 Z " fill="#000001" transform="translate(116,25)"/>
<path d="M0 0 C0.66 0 1.32 0 2 0 C2 2.97 2 5.94 2 9 C1.34 9 0.68 9 0 9 C0 6.03 0 3.06 0 0 Z " fill="#0686C2" transform="translate(253,74)"/>
<path d="M0 0 C0.33 0 0.66 0 1 0 C1 5.94 1 11.88 1 18 C0.67 18 0.34 18 0 18 C0 12.06 0 6.12 0 0 Z " fill="#010001" transform="translate(124,33)"/>
<path d="M0 0 C0.99 0.33 1.98 0.66 3 1 C2.67 2.32 2.34 3.64 2 5 C0.35 4.67 -1.3 4.34 -3 4 C-3 3.34 -3 2.68 -3 2 C-2.01 1.34 -1.02 0.68 0 0 Z " fill="#0471CA" transform="translate(275,88)"/>
<path d="M0 0 C0.33 0 0.66 0 1 0 C1 5.28 1 10.56 1 16 C0.67 16 0.34 16 0 16 C0 10.72 0 5.44 0 0 Z " fill="#1F7DAF" transform="translate(133,76)"/>
<path d="M0 0 C0.33 0 0.66 0 1 0 C1 3.63 1 7.26 1 11 C0.67 11 0.34 11 0 11 C0 7.37 0 3.74 0 0 Z " fill="#000000" transform="translate(131,33)"/>
<path d="M0 0 C0.33 0 0.66 0 1 0 C1 2.97 1 5.94 1 9 C0.67 9 0.34 9 0 9 C0 6.03 0 3.06 0 0 Z " fill="#000000" transform="translate(154,34)"/>
<path d="M0 0 C0.33 0 0.66 0 1 0 C1 2.64 1 5.28 1 8 C0.67 8 0.34 8 0 8 C0 5.36 0 2.72 0 0 Z " fill="#1A7DA2" transform="translate(212,74)"/>
<path d="M0 0 C0.33 0 0.66 0 1 0 C1 2.31 1 4.62 1 7 C0.67 7 0.34 7 0 7 C0 4.69 0 2.38 0 0 Z " fill="#056FC1" transform="translate(148,75)"/>
<path d="M0 0 C0.33 0 0.66 0 1 0 C1 2.31 1 4.62 1 7 C0.67 7 0.34 7 0 7 C0 4.69 0 2.38 0 0 Z " fill="#124F78" transform="translate(140,75)"/>
<path d="M0 0 C0.33 0 0.66 0 1 0 C1 2.31 1 4.62 1 7 C0.67 7 0.34 7 0 7 C0 4.69 0 2.38 0 0 Z " fill="#1A71AA" transform="translate(116,75)"/>
<path d="M0 0 C0.33 0 0.66 0 1 0 C1 2.31 1 4.62 1 7 C0.67 7 0.34 7 0 7 C0 4.69 0 2.38 0 0 Z " fill="#0674AD" transform="translate(220,75)"/>
<path d="M0 0 C0.66 0.33 1.32 0.66 2 1 C0.68 1.99 -0.64 2.98 -2 4 C-1.34 2.68 -0.68 1.36 0 0 Z " fill="#0A4991" transform="translate(260,65)"/>
<path d="M0 0 C2.31 0 4.62 0 7 0 C7 0.33 7 0.66 7 1 C4.69 1 2.38 1 0 1 C0 0.67 0 0.34 0 0 Z " fill="#114A98" transform="translate(266,62)"/>
<path d="M0 0 C2.31 0 4.62 0 7 0 C7 0.33 7 0.66 7 1 C4.69 1 2.38 1 0 1 C0 0.67 0 0.34 0 0 Z " fill="#114A84" transform="translate(235,62)"/>
<path d="M0 0 C0.33 0 0.66 0 1 0 C1 2.31 1 4.62 1 7 C0.67 7 0.34 7 0 7 C0 4.69 0 2.38 0 0 Z " fill="#000000" transform="translate(71,35)"/>
<path d="M0 0 C0.33 0 0.66 0 1 0 C1 1.98 1 3.96 1 6 C0.67 6 0.34 6 0 6 C0 4.02 0 2.04 0 0 Z " fill="#0977D0" transform="translate(100,75)"/>
<path d="M0 0 C1.98 0 3.96 0 6 0 C6 0.33 6 0.66 6 1 C4.02 1 2.04 1 0 1 C0 0.67 0 0.34 0 0 Z " fill="#125291" transform="translate(105,62)"/>
<path d="M0 0 C1.98 0 3.96 0 6 0 C6 0.33 6 0.66 6 1 C4.02 1 2.04 1 0 1 C0 0.67 0 0.34 0 0 Z " fill="#000000" transform="translate(60,54)"/>
<path d="M0 0 C0.33 0 0.66 0 1 0 C1 1.98 1 3.96 1 6 C0.67 6 0.34 6 0 6 C0 4.02 0 2.04 0 0 Z " fill="#000000" transform="translate(99,42)"/>
<path d="M0 0 C0.33 0 0.66 0 1 0 C1 1.65 1 3.3 1 5 C0.67 5 0.34 5 0 5 C0 3.35 0 1.7 0 0 Z " fill="#2E95D4" transform="translate(92,76)"/>
<path d="M0 0 C1.65 0 3.3 0 5 0 C5 0.33 5 0.66 5 1 C3.35 1 1.7 1 0 1 C0 0.67 0 0.34 0 0 Z " fill="#000002" transform="translate(144,54)"/>
<path d="M0 0 C1.65 0 3.3 0 5 0 C5 0.33 5 0.66 5 1 C3.35 1 1.7 1 0 1 C0 0.67 0 0.34 0 0 Z " fill="#000000" transform="translate(87,54)"/>
<path d="M0 0 C1.65 0 3.3 0 5 0 C5 0.33 5 0.66 5 1 C3.35 1 1.7 1 0 1 C0 0.67 0 0.34 0 0 Z " fill="#000000" transform="translate(156,53)"/>
<path d="M0 0 C0.33 0 0.66 0 1 0 C1 1.65 1 3.3 1 5 C0.67 5 0.34 5 0 5 C0 3.35 0 1.7 0 0 Z " fill="#1B609A" transform="translate(192,51)"/>
<path d="M0 0 C0.99 0.99 1.98 1.98 3 3 C2.01 2.67 1.02 2.34 0 2 C0 1.34 0 0.68 0 0 Z " fill="#000000" transform="translate(135,48)"/>
<path d="M0 0 C1.65 0 3.3 0 5 0 C5 0.33 5 0.66 5 1 C3.35 1 1.7 1 0 1 C0 0.67 0 0.34 0 0 Z " fill="#04508D" transform="translate(178,41)"/>
<path d="M0 0 C0.33 0 0.66 0 1 0 C1 1.65 1 3.3 1 5 C0.67 5 0.34 5 0 5 C0 3.35 0 1.7 0 0 Z " fill="#000000" transform="translate(55,36)"/>
<path d="M0 0 C0.33 0 0.66 0 1 0 C1 1.65 1 3.3 1 5 C0.67 5 0.34 5 0 5 C0 3.35 0 1.7 0 0 Z " fill="#000000" transform="translate(47,36)"/>
<path d="M0 0 C0.33 1.32 0.66 2.64 1 4 C0.34 3.34 -0.32 2.68 -1 2 C-0.67 1.34 -0.34 0.68 0 0 Z " fill="#000000" transform="translate(99,25)"/>
<path d="M0 0 C1.65 0 3.3 0 5 0 C5 0.33 5 0.66 5 1 C3.35 1 1.7 1 0 1 C0 0.67 0 0.34 0 0 Z " fill="#000000" transform="translate(156,23)"/>
<path d="M0 0 C1.65 0 3.3 0 5 0 C5 0.33 5 0.66 5 1 C3.35 1 1.7 1 0 1 C0 0.67 0 0.34 0 0 Z " fill="#000000" transform="translate(144,22)"/>
<path d="M0 0 C1.65 0 3.3 0 5 0 C5 0.33 5 0.66 5 1 C3.35 1 1.7 1 0 1 C0 0.67 0 0.34 0 0 Z " fill="#000000" transform="translate(61,22)"/>
<path d="M0 0 C4 1 4 1 4 1 Z " fill="#2B77AC" transform="translate(106,94)"/>
<path d="M0 0 C4 1 4 1 4 1 Z " fill="#346596" transform="translate(224,93)"/>
<path d="M0 0 C4 1 4 1 4 1 Z " fill="#2D7DA3" transform="translate(128,93)"/>
<path d="M0 0 C4 1 4 1 4 1 Z " fill="#1A7B9D" transform="translate(118,93)"/>
<path d="M0 0 C1 4 1 4 1 4 Z " fill="#0A5ACC" transform="translate(245,79)"/>
<path d="M0 0 C1 4 1 4 1 4 Z " fill="#095295" transform="translate(284,72)"/>
<path d="M0 0 C1 4 1 4 1 4 Z " fill="#1B6DAD" transform="translate(245,74)"/>
<path d="M0 0 C1 4 1 4 1 4 Z " fill="#0A59C4" transform="translate(230,73)"/>
<path d="M0 0 C1 4 1 4 1 4 Z " fill="#1973A5" transform="translate(134,72)"/>
<path d="M0 0 C4 1 4 1 4 1 Z " fill="#1083B4" transform="translate(128,63)"/>
<path d="M0 0 C4 1 4 1 4 1 Z " fill="#10498D" transform="translate(136,62)"/>
<path d="M0 0 C4 1 4 1 4 1 Z " fill="#0B75A9" transform="translate(224,53)"/>
<path d="M0 0 C4 1 4 1 4 1 Z " fill="#003B65" transform="translate(118,53)"/>
<path d="M0 0 C4 1 4 1 4 1 Z " fill="#000000" transform="translate(106,53)"/>
<path d="M0 0 C4 1 4 1 4 1 Z " fill="#000000" transform="translate(73,53)"/>
<path d="M0 0 C1 4 1 4 1 4 Z " fill="#000000" transform="translate(138,37)"/>
<path d="M0 0 C4 1 4 1 4 1 Z " fill="#000000" transform="translate(118,23)"/>
<path d="M0 0 C4 1 4 1 4 1 Z " fill="#000000" transform="translate(73,23)"/>
<path d="M0 0 C4 1 4 1 4 1 Z " fill="#000000" transform="translate(88,22)"/>
<path d="M0 0 C4 1 4 1 4 1 Z " fill="#000000" transform="translate(47,14)"/>
<path d="M0 0 C4 1 4 1 4 1 Z " fill="#000000" transform="translate(106,13)"/>
<path d="M0 0 C3 1 3 1 3 1 Z " fill="#2354CF" transform="translate(268,94)"/>
<path d="M0 0 C3 1 3 1 3 1 Z " fill="#2358CB" transform="translate(237,94)"/>
<path d="M0 0 C3 1 3 1 3 1 Z " fill="#1F67C3" transform="translate(272,93)"/>
<path d="M0 0 C3 1 3 1 3 1 Z " fill="#156A91" transform="translate(264,93)"/>
<path d="M0 0 C3 1 3 1 3 1 Z " fill="#1A64A8" transform="translate(233,93)"/>
<path d="M0 0 C3 1 3 1 3 1 Z " fill="#0F71B1" transform="translate(207,93)"/>
<path d="M0 0 C3 1 3 1 3 1 Z " fill="#19698D" transform="translate(151,93)"/>
<path d="M0 0 C3 1 3 1 3 1 Z " fill="#0C73AA" transform="translate(103,93)"/>
<path d="" fill="#2E7CB3" transform="translate(0,0)"/>
<path d="" fill="#1879D2" transform="translate(0,0)"/>
<path d="" fill="#015CA3" transform="translate(0,0)"/>
<path d="" fill="#2950C2" transform="translate(0,0)"/>
<path d="" fill="#055AB6" transform="translate(0,0)"/>
<path d="" fill="#0F5FC7" transform="translate(0,0)"/>
<path d="M0 0 C3 1 3 1 3 1 Z " fill="#0E5BCA" transform="translate(273,63)"/>
<path d="M0 0 C3 1 3 1 3 1 Z " fill="#0BA5C3" transform="translate(208,63)"/>
<path d="M0 0 C3 1 3 1 3 1 Z " fill="#000000" transform="translate(66,53)"/>
<path d="M0 0 C0.33 0.66 0.66 1.32 1 2 C0.34 1.67 -0.32 1.34 -1 1 C-0.67 0.67 -0.34 0.34 0 0 Z " fill="#000000" transform="translate(96,50)"/>
<path d="" fill="#000000" transform="translate(0,0)"/>
<path d="M0 0 C0.66 0 1.32 0 2 0 C1.67 0.66 1.34 1.32 1 2 C0.67 1.34 0.34 0.68 0 0 Z " fill="#000000" transform="translate(90,42)"/>
<path d="" fill="#000000" transform="translate(0,0)"/>
<path d="" fill="#000000" transform="translate(0,0)"/>
<path d="" fill="#000000" transform="translate(0,0)"/>
<path d="" fill="#000000" transform="translate(0,0)"/>
<path d="" fill="#000000" transform="translate(0,0)"/>
<path d="" fill="#000000" transform="translate(0,0)"/>
<path d="" fill="#000000" transform="translate(0,0)"/>
<path d="" fill="#000000" transform="translate(0,0)"/>
<path d="" fill="#000000" transform="translate(0,0)"/>
<path d="M0 0 C0.99 0.495 0.99 0.495 2 1 C1.01 1.495 1.01 1.495 0 2 C0 1.34 0 0.68 0 0 Z " fill="#000000" transform="translate(84,24)"/>
<path d="M0 0 C3 1 3 1 3 1 Z " fill="#000000" transform="translate(149,23)"/>
<path d="M0 0 C3 1 3 1 3 1 Z " fill="#000000" transform="translate(141,23)"/>
<path d="M0 0 C3 1 3 1 3 1 Z " fill="#000000" transform="translate(66,23)"/>
<path d="M0 0 C3 1 3 1 3 1 Z " fill="#000000" transform="translate(58,23)"/>
<path d="M0 0 C3 1 3 1 3 1 Z " fill="#000000" transform="translate(127,22)"/>
<path d="" fill="#000000" transform="translate(0,0)"/>
<path d="" fill="#000000" transform="translate(0,0)"/>
<path d="M0 0 C2 1 2 1 2 1 Z " fill="#03689A" transform="translate(210,92)"/>
<path d="M0 0 C2 1 2 1 2 1 Z " fill="#00568E" transform="translate(149,92)"/>
<path d="M0 0 C2 1 2 1 2 1 Z " fill="#076CDB" transform="translate(101,92)"/>
<path d="" fill="#063666" transform="translate(0,0)"/>
<path d="" fill="#003E66" transform="translate(0,0)"/>
<path d="" fill="#33A6E6" transform="translate(0,0)"/>
<path d="" fill="#1A74B1" transform="translate(0,0)"/>
<path d="" fill="#044C93" transform="translate(0,0)"/>
<path d="" fill="#229DCF" transform="translate(0,0)"/>
<path d="" fill="#0D77C9" transform="translate(0,0)"/>
<path d="" fill="#0B6BA6" transform="translate(0,0)"/>
<path d="" fill="#0D5EA7" transform="translate(0,0)"/>
<path d="" fill="#0B4275" transform="translate(0,0)"/>
<path d="" fill="#0C5999" transform="translate(0,0)"/>
<path d="" fill="#3C99C5" transform="translate(0,0)"/>
<path d="" fill="#074BAA" transform="translate(0,0)"/>
<path d="" fill="#0D4177" transform="translate(0,0)"/>
<path d="" fill="#1C72CD" transform="translate(0,0)"/>
<path d="" fill="#2E96C5" transform="translate(0,0)"/>
<path d="" fill="#3094D0" transform="translate(0,0)"/>
<path d="" fill="#1C71A8" transform="translate(0,0)"/>
<path d="" fill="#154FE1" transform="translate(0,0)"/>
<path d="" fill="#003EA5" transform="translate(0,0)"/>
<path d="" fill="#168CC5" transform="translate(0,0)"/>
<path d="" fill="#36DEFF" transform="translate(0,0)"/>
<path d="" fill="#1241C5" transform="translate(0,0)"/>
<path d="" fill="#1D74A5" transform="translate(0,0)"/>
<path d="M0 0 C2 1 2 1 2 1 Z " fill="#1774A2" transform="translate(242,63)"/>
<path d="M0 0 C2 1 2 1 2 1 Z " fill="#094D9A" transform="translate(140,63)"/>
<path d="M0 0 C2 1 2 1 2 1 Z " fill="#0777B8" transform="translate(112,63)"/>
<path d="" fill="#0754BF" transform="translate(0,0)"/>
<path d="" fill="#1B79BE" transform="translate(0,0)"/>
<path d="M0 0 C2 1 2 1 2 1 Z " fill="#000000" transform="translate(92,53)"/>
<path d="M0 0 C2 1 2 1 2 1 Z " fill="#000000" transform="translate(85,53)"/>
<path d="M0 0 C2 1 2 1 2 1 Z " fill="#000000" transform="translate(139,52)"/>
<path d="" fill="#000000" transform="translate(0,0)"/>
<path d="" fill="#065CA6" transform="translate(0,0)"/>
<path d="" fill="#000000" transform="translate(0,0)"/>
<path d="" fill="#000000" transform="translate(0,0)"/>
<path d="" fill="#1174A4" transform="translate(0,0)"/>
<path d="" fill="#000000" transform="translate(0,0)"/>
<path d="" fill="#000000" transform="translate(0,0)"/>
<path d="" fill="#000000" transform="translate(0,0)"/>
<path d="" fill="#000000" transform="translate(0,0)"/>
<path d="" fill="#000000" transform="translate(0,0)"/>
<path d="" fill="#000000" transform="translate(0,0)"/>
<path d="" fill="#000000" transform="translate(0,0)"/>
<path d="" fill="#000000" transform="translate(0,0)"/>
<path d="" fill="#000000" transform="translate(0,0)"/>
<path d="" fill="#000000" transform="translate(0,0)"/>
<path d="M0 0 C2 1 2 1 2 1 Z " fill="#1C74C4" transform="translate(183,42)"/>
<path d="M0 0 C2 1 2 1 2 1 Z " fill="#17749B" transform="translate(176,42)"/>
<path d="" fill="#000000" transform="translate(0,0)"/>
<path d="" fill="#000000" transform="translate(0,0)"/>
<path d="" fill="#000000" transform="translate(0,0)"/>
<path d="" fill="#000000" transform="translate(0,0)"/>
<path d="" fill="#000000" transform="translate(0,0)"/>
<path d="" fill="#000000" transform="translate(0,0)"/>
<path d="" fill="#000000" transform="translate(0,0)"/>
<path d="" fill="#000000" transform="translate(0,0)"/>
<path d="" fill="#000000" transform="translate(0,0)"/>
<path d="" fill="#000000" transform="translate(0,0)"/>
<path d="" fill="#000000" transform="translate(0,0)"/>
<path d="" fill="#000000" transform="translate(0,0)"/>
<path d="" fill="#000000" transform="translate(0,0)"/>
<path d="" fill="#000000" transform="translate(0,0)"/>
<path d="" fill="#000000" transform="translate(0,0)"/>
<path d="" fill="#000000" transform="translate(0,0)"/>
<path d="" fill="#000000" transform="translate(0,0)"/>
<path d="" fill="#000000" transform="translate(0,0)"/>
<path d="" fill="#000000" transform="translate(0,0)"/>
<path d="" fill="#000000" transform="translate(0,0)"/>
<path d="" fill="#000000" transform="translate(0,0)"/>
<path d="" fill="#000000" transform="translate(0,0)"/>
<path d="" fill="#000000" transform="translate(0,0)"/>
<path d="" fill="#000000" transform="translate(0,0)"/>
<path d="" fill="#000000" transform="translate(0,0)"/>
<path d="" fill="#000000" transform="translate(0,0)"/>
<path d="" fill="#000000" transform="translate(0,0)"/>
<path d="" fill="#000000" transform="translate(0,0)"/>
<path d="" fill="#000000" transform="translate(0,0)"/>
<path d="" fill="#000000" transform="translate(0,0)"/>
<path d="" fill="#000000" transform="translate(0,0)"/>
<path d="" fill="#000000" transform="translate(0,0)"/>
<path d="" fill="#000000" transform="translate(0,0)"/>
<path d="" fill="#000000" transform="translate(0,0)"/>
<path d="" fill="#000000" transform="translate(0,0)"/>
<path d="" fill="#000000" transform="translate(0,0)"/>
<path d="M0 0 C2 1 2 1 2 1 Z " fill="#000000" transform="translate(130,23)"/>
<path d="M0 0 C2 1 2 1 2 1 Z " fill="#000000" transform="translate(125,23)"/>
<path d="M0 0 C2 1 2 1 2 1 Z " fill="#000000" transform="translate(86,23)"/>
<path d="" fill="#000000" transform="translate(0,0)"/>
<path d="" fill="#000000" transform="translate(0,0)"/>
<path d="" fill="#000000" transform="translate(0,0)"/>
<path d="" fill="#000000" transform="translate(0,0)"/>
<path d="" fill="#000000" transform="translate(0,0)"/>
<path d="" fill="#000000" transform="translate(0,0)"/>
<path d="" fill="#000000" transform="translate(0,0)"/>
<path d="" fill="#000000" transform="translate(0,0)"/>
<path d="" fill="#000000" transform="translate(0,0)"/>
<path d="" fill="#000000" transform="translate(0,0)"/>
<path d="" fill="#000000" transform="translate(0,0)"/>
<path d="" fill="#0A5491" transform="translate(0,0)"/>
<path d="" fill="#005599" transform="translate(0,0)"/>
<path d="" fill="#095690" transform="translate(0,0)"/>
<path d="" fill="#125C97" transform="translate(0,0)"/>
<path d="" fill="#045799" transform="translate(0,0)"/>
<path d="" fill="#1279AF" transform="translate(0,0)"/>
<path d="" fill="#08578E" transform="translate(0,0)"/>
<path d="" fill="#125BA0" transform="translate(0,0)"/>
<path d="" fill="#015997" transform="translate(0,0)"/>
<path d="" fill="#007A99" transform="translate(0,0)"/>
<path d="" fill="#3BD6F2" transform="translate(0,0)"/>
<path d="" fill="#236F83" transform="translate(0,0)"/>
<path d="" fill="#085DAE" transform="translate(0,0)"/>
<path d="" fill="#108ED1" transform="translate(0,0)"/>
<path d="" fill="#3FDEEC" transform="translate(0,0)"/>
<path d="" fill="#2A7FCF" transform="translate(0,0)"/>
<path d="" fill="#0367BA" transform="translate(0,0)"/>
<path d="" fill="#046C9F" transform="translate(0,0)"/>
<path d="" fill="#0F4C87" transform="translate(0,0)"/>
<path d="" fill="#3CDCFF" transform="translate(0,0)"/>
<path d="" fill="#077BB3" transform="translate(0,0)"/>
<path d="" fill="#1368A9" transform="translate(0,0)"/>
<path d="" fill="#095888" transform="translate(0,0)"/>
<path d="" fill="#1368B4" transform="translate(0,0)"/>
<path d="" fill="#155491" transform="translate(0,0)"/>
<path d="" fill="#0A68D6" transform="translate(0,0)"/>
<path d="" fill="#056DB5" transform="translate(0,0)"/>
<path d="" fill="#0B7A89" transform="translate(0,0)"/>
<path d="" fill="#106DB8" transform="translate(0,0)"/>
<path d="" fill="#004783" transform="translate(0,0)"/>
<path d="" fill="#057FBD" transform="translate(0,0)"/>
<path d="" fill="#144A9E" transform="translate(0,0)"/>
<path d="" fill="#005EA1" transform="translate(0,0)"/>
<path d="" fill="#15578E" transform="translate(0,0)"/>
<path d="" fill="#0E50B2" transform="translate(0,0)"/>
<path d="" fill="#3E70C6" transform="translate(0,0)"/>
<path d="" fill="#0053A0" transform="translate(0,0)"/>
<path d="" fill="#015DAD" transform="translate(0,0)"/>
<path d="" fill="#207AC6" transform="translate(0,0)"/>
<path d="" fill="#00328A" transform="translate(0,0)"/>
<path d="" fill="#0E91D2" transform="translate(0,0)"/>
<path d="" fill="#0057AB" transform="translate(0,0)"/>
<path d="" fill="#005295" transform="translate(0,0)"/>
<path d="" fill="#006EB4" transform="translate(0,0)"/>
<path d="" fill="#46C9FF" transform="translate(0,0)"/>
<path d="" fill="#1D67B4" transform="translate(0,0)"/>
<path d="" fill="#0F6AC1" transform="translate(0,0)"/>
<path d="" fill="#0057DA" transform="translate(0,0)"/>
<path d="" fill="#2B8BB8" transform="translate(0,0)"/>
<path d="" fill="#045DAD" transform="translate(0,0)"/>
<path d="" fill="#1B88D3" transform="translate(0,0)"/>
<path d="" fill="#0E7793" transform="translate(0,0)"/>
<path d="" fill="#0059B7" transform="translate(0,0)"/>
<path d="" fill="#3191EE" transform="translate(0,0)"/>
<path d="" fill="#005890" transform="translate(0,0)"/>
<path d="" fill="#12748E" transform="translate(0,0)"/>
<path d="" fill="#000000" transform="translate(0,0)"/>
<path d="" fill="#000000" transform="translate(0,0)"/>
<path d="" fill="#000000" transform="translate(0,0)"/>
<path d="" fill="#12729A" transform="translate(0,0)"/>
<path d="" fill="#000000" transform="translate(0,0)"/>
<path d="" fill="#000000" transform="translate(0,0)"/>
<path d="" fill="#0C7089" transform="translate(0,0)"/>
<path d="" fill="#000000" transform="translate(0,0)"/>
<path d="" fill="#000000" transform="translate(0,0)"/>
<path d="" fill="#017890" transform="translate(0,0)"/>
<path d="" fill="#000000" transform="translate(0,0)"/>
<path d="" fill="#00658D" transform="translate(0,0)"/>
<path d="" fill="#000000" transform="translate(0,0)"/>
<path d="" fill="#000000" transform="translate(0,0)"/>
<path d="" fill="#0068A1" transform="translate(0,0)"/>
<path d="" fill="#002B6F" transform="translate(0,0)"/>
<path d="" fill="#1E89C2" transform="translate(0,0)"/>
<path d="" fill="#000000" transform="translate(0,0)"/>
<path d="" fill="#000000" transform="translate(0,0)"/>
<path d="" fill="#000000" transform="translate(0,0)"/>
<path d="" fill="#000000" transform="translate(0,0)"/>
<path d="" fill="#000000" transform="translate(0,0)"/>
<path d="" fill="#000000" transform="translate(0,0)"/>
<path d="" fill="#000000" transform="translate(0,0)"/>
<path d="" fill="#000000" transform="translate(0,0)"/>
<path d="" fill="#000000" transform="translate(0,0)"/>
<path d="" fill="#000000" transform="translate(0,0)"/>
<path d="" fill="#000000" transform="translate(0,0)"/>
<path d="" fill="#000000" transform="translate(0,0)"/>
<path d="" fill="#000000" transform="translate(0,0)"/>
<path d="" fill="#000000" transform="translate(0,0)"/>
<path d="" fill="#000000" transform="translate(0,0)"/>
<path d="" fill="#000000" transform="translate(0,0)"/>
<path d="" fill="#000000" transform="translate(0,0)"/>
<path d="" fill="#000000" transform="translate(0,0)"/>
<path d="" fill="#000000" transform="translate(0,0)"/>
<path d="" fill="#000000" transform="translate(0,0)"/>
<path d="" fill="#000000" transform="translate(0,0)"/>
<path d="" fill="#000000" transform="translate(0,0)"/>
<path d="" fill="#000000" transform="translate(0,0)"/>
<path d="" fill="#000000" transform="translate(0,0)"/>
<path d="" fill="#000000" transform="translate(0,0)"/>
<path d="" fill="#000000" transform="translate(0,0)"/>
</svg>
